<svg width="297" height="319" viewBox="0 0 297 319" fill="none" xmlns="http://www.w3.org/2000/svg">
<path d="M0.0962103 134.56C0.358846 123.548 1.52194 112.63 4.2421 102.087C4.91745 99.4419 4.72985 96.8343 5.19884 94.2267C6.90597 84.7718 8.83822 75.467 13.3593 67.2503C19.2123 56.6135 22.7954 44.401 29.6802 34.4396C37.5218 23.09 47.5582 16.0363 58.5326 10.127C67.4998 5.30577 76.7483 7.0129 85.9781 6.35631C97.3464 5.54965 108.021 8.70127 118.095 13.7664C125.242 17.3682 132.746 19.732 139.781 23.6715C145.352 26.7856 148.354 32.9013 152.387 37.7788C153.588 39.2233 153.982 39.8236 155.145 38.0789C160.248 30.425 165.65 23.0712 172.592 17.7622C179.27 12.6596 185.555 6.63771 193.471 4.14268C206.847 -0.0594954 220.466 -0.791128 233.748 2.97957C250.669 7.78205 267.103 14.6856 282.411 24.9847C286.463 27.7048 288.939 32.0758 290.628 36.8971C292.203 41.3619 293.554 46.2207 293.817 51.0044C294.511 63.5359 297.662 75.6546 296.874 88.5613C296.443 95.6149 297.268 102.931 295.43 109.797C291.941 122.854 288.226 135.742 281.098 146.923C277.327 152.832 274.851 159.942 271.755 166.489C269.016 172.286 266.54 178.214 262.3 182.885C255.115 190.82 251.326 201.645 247.161 211.869C245.135 216.821 242.453 220.93 239.564 224.719C233.185 233.067 228.008 242.016 224.8 252.784C221.798 262.858 214.801 269.573 209.042 277.284C201.481 287.376 192.195 294.711 182.797 302.028C178.126 305.667 173.83 310.207 169.346 314.315C165.35 317.973 161.223 318.349 156.458 318.217C149.179 318.011 141.957 316.829 134.697 316.773C126.912 316.717 120.308 313.546 114.155 308.031C106.351 301.034 98.4908 294.055 90.274 287.789C86.297 284.75 82.6201 281.167 79.0745 277.696C74.741 273.438 69.8447 270.718 65.1736 267.416C59.3956 263.327 56.4691 256.067 51.7979 250.72C48.4399 246.893 45.0632 242.916 41.9116 238.676C32.513 226.032 26.266 210.874 18.537 196.973C13.9784 188.776 10.5829 179.433 5.72412 171.273C4.11078 168.553 3.77311 165.288 3.4542 162.099C2.53497 152.907 -0.522863 144.09 0.0774466 134.616L0.0962103 134.56Z" fill="#0525C6"/>
<path d="M153.269 208.623C143.158 207.629 134.322 207.648 125.73 204.496C115.731 200.838 109.634 193.878 105.282 184.761C104.794 183.729 104.513 182.622 104.006 181.59C102.956 179.471 101.549 177.144 104.813 175.944C107.627 174.912 110.722 175.775 111.416 178.758C115.919 198.005 136.93 201.401 151.506 200.988C156.233 200.857 159.235 197.123 162.405 194.384C171.841 186.224 180.959 177.688 185.048 165.307C186.136 162.043 186.924 158.76 186.68 155.252C186.493 152.269 188.35 151.237 191.126 151.519C194.072 151.8 194.616 153.413 194.541 156.227C194.165 169.941 186.98 180.69 178.726 190.464C172.667 197.649 164.675 203.126 156.402 207.816C155.145 208.529 153.476 208.548 153.251 208.586L153.269 208.623Z" fill="white"/>
<path d="M116.368 102.068C124.265 101.937 126.273 103.344 126.423 108.69C126.61 115.613 123.065 122.366 119.144 122.535C114.135 122.723 111.321 117.62 110.946 108.503C110.758 104.038 111.171 100.699 116.368 102.068Z" fill="white"/>
<path d="M169.496 110.473C169.383 115.763 165.781 120.434 161.917 120.172C155.332 119.703 156.664 113.793 156.045 110.173C155.088 104.601 157.865 102.031 162.648 102.106C167.188 102.181 169.589 105.145 169.477 110.473H169.496Z" fill="white"/>
<path d="M141.6 144.728C139.687 146.998 141.056 147.223 143.064 148.442C145.765 150.056 145.709 153.245 142.595 154.783C139.706 156.209 136.498 155.14 133.928 153.47C131.151 151.65 131.339 148.499 131.789 145.647C132.239 142.833 134.64 141.614 137.023 141.014C139.799 140.319 142.051 141.014 141.582 144.728H141.6Z" fill="white"/>
</svg>
