<svg width="29" height="31" viewBox="0 0 29 31" fill="none" xmlns="http://www.w3.org/2000/svg">
<path d="M0.00934124 13.0133C0.034841 11.9441 0.147769 10.8841 0.411874 9.86044C0.477445 9.60362 0.45923 9.35044 0.504766 9.09726C0.670514 8.17927 0.85812 7.27585 1.29708 6.47807C1.86536 5.44533 2.21325 4.25959 2.88171 3.29241C3.64306 2.19046 4.61752 1.50561 5.68305 0.931861C6.55368 0.463757 7.45164 0.629506 8.34778 0.565756C9.45155 0.487435 10.4879 0.793433 11.466 1.28522C12.16 1.63493 12.8886 1.86443 13.5716 2.24692C14.1126 2.54928 14.404 3.14306 14.7956 3.61663C14.9122 3.75687 14.9504 3.81516 15.0633 3.64577C15.5588 2.90263 16.0833 2.18864 16.7572 1.67318C17.4057 1.17775 18.0158 0.593078 18.7845 0.35083C20.0832 -0.057167 21.4055 -0.128203 22.6951 0.237902C24.338 0.704184 25.9335 1.37446 27.4198 2.37442C27.8132 2.63853 28.0537 3.06292 28.2176 3.53102C28.3706 3.96452 28.5017 4.43626 28.5272 4.90072C28.5946 6.11743 28.9006 7.29406 28.8241 8.5472C28.7822 9.23205 28.8624 9.9424 28.6839 10.609C28.3451 11.8767 27.9844 13.1281 27.2923 14.2136C26.9262 14.7874 26.6858 15.4777 26.3852 16.1134C26.1193 16.6762 25.8789 17.2517 25.4673 17.7053C24.7697 18.4757 24.4017 19.5267 23.9974 20.5194C23.8007 21.0002 23.5402 21.3991 23.2597 21.767C22.6404 22.5776 22.1377 23.4464 21.8262 24.4919C21.5348 25.47 20.8554 26.122 20.2963 26.8706C19.5622 27.8505 18.6606 28.5627 17.7481 29.2731C17.2946 29.6264 16.8775 30.0672 16.4421 30.4661C16.0542 30.8213 15.6535 30.8577 15.1908 30.845C14.4841 30.8249 13.7829 30.7102 13.078 30.7047C12.3221 30.6992 11.681 30.3914 11.0835 29.8559C10.3258 29.1765 9.56266 28.499 8.76488 27.8906C8.37874 27.5956 8.02174 27.2477 7.6775 26.9107C7.25675 26.4972 6.78136 26.2331 6.32783 25.9126C5.76683 25.5155 5.48269 24.8106 5.02916 24.2915C4.70313 23.9199 4.37527 23.5338 4.06927 23.1222C3.15675 21.8945 2.55021 20.4228 1.79979 19.0732C1.35719 18.2772 1.02751 17.3701 0.555766 16.5778C0.399124 16.3137 0.366339 15.9968 0.335375 15.6871C0.246125 14.7946 -0.0507658 13.9386 0.00751944 13.0188L0.00934124 13.0133Z" fill="#0525C6"/>
<path d="M14.8813 20.2045C13.8996 20.1079 13.0417 20.1098 12.2075 19.8038C11.2367 19.4486 10.6447 18.7728 10.2221 17.8876C10.1748 17.7874 10.1475 17.68 10.0983 17.5798C9.99629 17.374 9.85969 17.1481 10.1766 17.0316C10.4498 16.9314 10.7504 17.0152 10.8178 17.3048C11.2549 19.1735 13.2949 19.5032 14.7101 19.4631C15.1691 19.4504 15.4605 19.0879 15.7684 18.822C16.6845 18.0297 17.5697 17.201 17.9668 15.9988C18.0724 15.6819 18.1489 15.3631 18.1253 15.0225C18.1071 14.7329 18.2874 14.6328 18.5569 14.6601C18.8429 14.6874 18.8957 14.844 18.8884 15.1173C18.852 16.4487 18.1544 17.4924 17.353 18.4413C16.7647 19.1389 15.9887 19.6708 15.1855 20.1261C15.0635 20.1954 14.9014 20.1972 14.8795 20.2008L14.8813 20.2045Z" fill="white"/>
<path d="M11.2985 9.8583C12.0654 9.84555 12.2603 9.98215 12.2748 10.5013C12.293 11.1734 11.9488 11.8291 11.5681 11.8455C11.0818 11.8637 10.8086 11.3683 10.7722 10.483C10.7539 10.0495 10.794 9.72533 11.2985 9.8583Z" fill="white"/>
<path d="M16.4565 10.6748C16.4456 11.1884 16.0959 11.642 15.7207 11.6165C15.0813 11.5709 15.2107 10.9972 15.1505 10.6457C15.0577 10.1047 15.3272 9.85517 15.7917 9.86246C16.2325 9.86975 16.4656 10.1575 16.4547 10.6748H16.4565Z" fill="white"/>
<path d="M13.7478 14.0006C13.562 14.221 13.695 14.2428 13.8899 14.3612C14.1521 14.5178 14.1467 14.8275 13.8443 14.9768C13.5638 15.1153 13.2524 15.0114 13.0028 14.8493C12.7333 14.6727 12.7515 14.3667 12.7952 14.0898C12.8389 13.8166 13.072 13.6982 13.3034 13.6399C13.5729 13.5725 13.7915 13.6399 13.746 14.0006H13.7478Z" fill="white"/>
</svg>
